<svg xmlns="http://www.w3.org/2000/svg" viewBox="0 0 360 180">
  <rect width="360" height="180" rx="22" fill="#e9e6df"/>
  <g fill="#d8d2c7"><rect x="20" y="18" width="64" height="42" rx="7"/><rect x="98" y="18" width="72" height="38" rx="7"/><rect x="268" y="104" width="70" height="44" rx="7"/><rect x="204" y="20" width="52" height="52" rx="7"/></g>
  <path d="M-20 140 C55 105 86 108 150 80 S250 38 385 46" fill="none" stroke="#fff" stroke-width="17"/>
  <path d="M-20 72 C65 92 110 35 188 52 S286 124 384 95" fill="none" stroke="#fff" stroke-width="9"/>
  <path d="M45 -20 C71 45 48 88 70 210M268 -20 C242 48 278 106 246 205" fill="none" stroke="#fff" stroke-width="7"/>
  <path d="M-5 139 C60 109 95 110 154 82 S250 38 370 47" fill="none" stroke="#ff6817" stroke-width="7" stroke-linecap="round"/>
  <circle cx="155" cy="82" r="8" fill="#ff6817" stroke="#fff" stroke-width="3"/>
</svg>
